<svg xmlns="http://www.w3.org/2000/svg" xmlns:xlink="http://www.w3.org/1999/xlink" width="1600" zoomAndPan="magnify" viewBox="0 0 1200 683.04" height="900" preserveAspectRatio="xMidYMid meet" version="1.0"><defs><g/><clipPath id="a5dbb3117b"><path d="M 0.0273438 0.578125 L 307.753906 0.578125 L 307.753906 193 L 0.0273438 193 Z M 0.0273438 0.578125 " clip-rule="nonzero"/></clipPath><clipPath id="dfc64faf16"><rect x="0" width="308" y="0" height="249"/></clipPath><clipPath id="8093209e05"><path d="M 10 0.855469 L 201 0.855469 L 201 172 L 10 172 Z M 10 0.855469 " clip-rule="nonzero"/></clipPath><clipPath id="f87711c220"><rect x="0" width="202" y="0" height="229"/></clipPath><clipPath id="35a52ffcf0"><path d="M 14.433594 15.371094 L 463.453125 15.371094 L 463.453125 476.453125 L 14.433594 476.453125 Z M 14.433594 15.371094 " clip-rule="nonzero"/></clipPath><clipPath id="d625a9e4e2"><path d="M 14.433594 239.574219 C 14.433594 115.871094 114.972656 15.589844 238.992188 15.589844 C 363.015625 15.589844 463.554688 115.871094 463.554688 239.574219 L 463.554688 252.472656 C 463.554688 376.175781 363.015625 476.453125 238.992188 476.453125 C 114.972656 476.453125 14.433594 376.175781 14.433594 252.472656 Z M 14.433594 239.574219 " clip-rule="nonzero"/></clipPath><clipPath id="09790f1edb"><rect x="0" width="477" y="0" height="491"/></clipPath></defs><g transform="matrix(1, 0, 0, 1, 361, 91)"><g clip-path="url(#09790f1edb)"><g transform="matrix(1, 0, 0, 1, 105, 179)"><g clip-path="url(#dfc64faf16)"><g clip-path="url(#a5dbb3117b)"><g fill="#ffffff" fill-opacity="1"><g transform="translate(23.743985, 190.385248)"><g><path d="M 140.59375 1.703125 C 137.1875 1.703125 134.453125 0.535156 132.390625 -1.796875 C 130.335938 -4.140625 129.3125 -7.296875 129.3125 -11.265625 C 129.3125 -14.535156 130.234375 -18.722656 132.078125 -23.828125 C 133.921875 -28.929688 137.113281 -36.085938 141.65625 -45.296875 L 162.703125 -87.421875 L 87.625 -87.421875 C 83.9375 -79.617188 80.210938 -71.957031 76.453125 -64.4375 C 72.703125 -56.925781 68.84375 -49.554688 64.875 -42.328125 C 61.613281 -36.515625 57.144531 -31.019531 51.46875 -25.84375 C 45.800781 -20.664062 39.492188 -16.054688 32.546875 -12.015625 C 25.597656 -7.972656 18.578125 -4.742188 11.484375 -2.328125 C 4.390625 0.078125 -2.203125 1.347656 -8.296875 1.484375 C -10.140625 1.484375 -12.265625 1.410156 -14.671875 1.265625 C -17.085938 1.128906 -19.144531 0.773438 -20.84375 0.203125 C -22.539062 -0.359375 -23.390625 -1.207031 -23.390625 -2.34375 C -23.390625 -4.75 -22.039062 -7.191406 -19.34375 -9.671875 C -16.65625 -12.160156 -13.539062 -13.40625 -10 -13.40625 C -6.738281 -13.40625 -2.554688 -12.90625 2.546875 -11.90625 C 7.648438 -10.914062 13.394531 -9.925781 19.78125 -8.9375 C 23.601562 -10.488281 27.285156 -12.859375 30.828125 -16.046875 C 34.378906 -19.242188 38.28125 -24.53125 42.53125 -31.90625 C 47.78125 -40.976562 52.640625 -50.15625 57.109375 -59.4375 C 61.578125 -68.726562 66.007812 -78.054688 70.40625 -87.421875 L 50.625 -87.421875 L 50.625 -90.8125 L 72.09375 -90.8125 C 75.363281 -97.625 78.734375 -104.429688 82.203125 -111.234375 C 85.679688 -118.035156 89.332031 -124.769531 93.15625 -131.4375 C 95.988281 -136.40625 99.109375 -140.660156 102.515625 -144.203125 C 105.921875 -147.742188 110.8125 -151.078125 117.1875 -154.203125 L 123.140625 -157.171875 L 74.015625 -155.90625 C 68.335938 -155.757812 64.082031 -154.765625 61.25 -152.921875 C 58.414062 -151.078125 55.367188 -148.382812 52.109375 -144.84375 L 50.1875 -146.109375 C 53.59375 -150.503906 56.75 -154.4375 59.65625 -157.90625 C 62.5625 -161.382812 65.503906 -164.398438 68.484375 -166.953125 C 70.046875 -168.085938 71.78125 -168.90625 73.6875 -169.40625 C 75.601562 -169.90625 77.484375 -170.15625 79.328125 -170.15625 L 138.890625 -170.15625 C 140.023438 -170.15625 140.695312 -169.976562 140.90625 -169.625 C 141.113281 -169.269531 141.21875 -168.878906 141.21875 -168.453125 C 141.21875 -167.878906 140.507812 -166.847656 139.09375 -165.359375 C 137.675781 -163.867188 136.046875 -162.34375 134.203125 -160.78125 C 132.359375 -159.226562 130.800781 -158.097656 129.53125 -157.390625 C 125.84375 -155.546875 122.863281 -152.847656 120.59375 -149.296875 C 118.320312 -145.753906 115.984375 -141.929688 113.578125 -137.828125 C 109.035156 -130.023438 104.78125 -122.1875 100.8125 -114.3125 C 96.84375 -106.445312 92.941406 -98.613281 89.109375 -90.8125 L 164.40625 -90.8125 L 183.765625 -129.53125 C 190.003906 -141.863281 197.835938 -152.53125 207.265625 -161.53125 C 216.691406 -170.539062 226.757812 -177.488281 237.46875 -182.375 C 248.175781 -187.269531 258.488281 -189.71875 268.40625 -189.71875 C 270.394531 -189.71875 272.519531 -189.644531 274.78125 -189.5 C 277.050781 -189.363281 279.035156 -189.046875 280.734375 -188.546875 C 282.441406 -188.046875 283.296875 -187.160156 283.296875 -185.890625 C 283.296875 -183.617188 282.019531 -181.242188 279.46875 -178.765625 C 276.914062 -176.285156 274.007812 -175.046875 270.75 -175.046875 C 267.488281 -175.046875 263.160156 -175.679688 257.765625 -176.953125 C 252.378906 -178.234375 246.78125 -179.441406 240.96875 -180.578125 C 235.445312 -178.585938 230.238281 -175.320312 225.34375 -170.78125 C 220.445312 -166.25 215.519531 -158.945312 210.5625 -148.875 L 161 -49.34375 C 156.75 -40.695312 153.382812 -33.535156 150.90625 -27.859375 C 148.425781 -22.191406 147.1875 -18.007812 147.1875 -15.3125 C 147.1875 -11.34375 149.097656 -9.359375 152.921875 -9.359375 C 158.171875 -9.359375 165.398438 -14.179688 174.609375 -23.828125 L 176.53125 -21.6875 C 168.59375 -13.894531 161.75 -8.046875 156 -4.140625 C 150.257812 -0.242188 145.125 1.703125 140.59375 1.703125 Z M 140.59375 1.703125 "/></g></g></g></g></g></g><g transform="matrix(1, 0, 0, 1, 72, 126)"><g clip-path="url(#f87711c220)"><g clip-path="url(#8093209e05)"><g fill="#ffffff" fill-opacity="1"><g transform="translate(1.468296, 171.135585)"><g><path d="M 11.484375 0 C 10.492188 0 9.851562 -0.175781 9.5625 -0.53125 C 9.28125 -0.882812 9.140625 -1.273438 9.140625 -1.703125 C 9.140625 -2.410156 10.164062 -3.6875 12.21875 -5.53125 C 14.28125 -7.375 16.304688 -9.078125 18.296875 -10.640625 L 21.6875 -13.609375 C 24.382812 -15.597656 26.757812 -18.113281 28.8125 -21.15625 C 30.875 -24.207031 33.039062 -27.71875 35.3125 -31.6875 C 40.695312 -40.90625 45.65625 -50.15625 50.1875 -59.4375 C 54.726562 -68.726562 59.195312 -78.054688 63.59375 -87.421875 L 45.09375 -87.421875 L 45.09375 -90.8125 L 65.296875 -90.8125 C 68.554688 -97.476562 71.851562 -104.144531 75.1875 -110.8125 C 78.519531 -117.476562 82.097656 -124.070312 85.921875 -130.59375 C 88.753906 -135.550781 91.800781 -139.765625 95.0625 -143.234375 C 98.332031 -146.710938 102.585938 -149.867188 107.828125 -152.703125 L 113.359375 -155.46875 L 65.078125 -155.46875 C 59.410156 -155.46875 55.191406 -154.472656 52.421875 -152.484375 C 49.660156 -150.503906 46.578125 -147.742188 43.171875 -144.203125 L 41.265625 -145.484375 C 44.804688 -149.878906 47.992188 -153.914062 50.828125 -157.59375 C 53.671875 -161.28125 56.578125 -164.398438 59.546875 -166.953125 C 61.109375 -168.085938 62.847656 -168.90625 64.765625 -169.40625 C 66.679688 -169.90625 68.628906 -170.15625 70.609375 -170.15625 L 186.953125 -170.15625 C 195.171875 -170.15625 199.28125 -167.671875 199.28125 -162.703125 C 199.425781 -158.734375 197.191406 -154.410156 192.578125 -149.734375 C 187.972656 -145.054688 181.703125 -139.664062 173.765625 -133.5625 L 172.28125 -135.90625 C 181.488281 -142.851562 186.09375 -147.890625 186.09375 -151.015625 C 186.09375 -152.710938 185.273438 -153.878906 183.640625 -154.515625 C 182.015625 -155.148438 179.363281 -155.46875 175.6875 -155.46875 L 120.171875 -155.46875 C 117.046875 -152.78125 114.457031 -149.945312 112.40625 -146.96875 C 110.351562 -143.988281 108.257812 -140.65625 106.125 -136.96875 C 101.726562 -129.3125 97.613281 -121.65625 93.78125 -114 C 89.957031 -106.34375 86.203125 -98.613281 82.515625 -90.8125 L 146.546875 -90.8125 L 146.546875 -87.421875 L 80.828125 -87.421875 C 77.140625 -79.472656 73.378906 -71.5625 69.546875 -63.6875 C 65.722656 -55.820312 61.539062 -47.921875 57 -39.984375 C 54.300781 -35.160156 51.570312 -31.257812 48.8125 -28.28125 C 46.050781 -25.3125 42.613281 -22.617188 38.5 -20.203125 L 28.078125 -14.03125 L 28.5 -14.03125 L 57.84375 -14.890625 C 58.84375 -14.890625 59.445312 -14.78125 59.65625 -14.5625 C 59.875 -14.351562 59.984375 -14.035156 59.984375 -13.609375 C 59.984375 -13.179688 59.519531 -12.148438 58.59375 -10.515625 C 57.675781 -8.890625 56.578125 -7.191406 55.296875 -5.421875 C 54.023438 -3.648438 52.820312 -2.335938 51.6875 -1.484375 C 50.976562 -0.921875 50.085938 -0.53125 49.015625 -0.3125 C 47.953125 -0.101562 46.785156 0 45.515625 0 Z M 11.484375 0 "/></g></g></g></g></g></g><g clip-path="url(#35a52ffcf0)"><g clip-path="url(#d625a9e4e2)"><path stroke-linecap="butt" transform="matrix(0, -0.927731, 0.927731, 0, 14.432504, 476.455057)" fill="none" stroke-linejoin="miter" d="M 255.333593 0.00117416 C 388.673055 0.00117416 496.766103 108.372118 496.766103 242.052634 C 496.766103 375.73736 388.673055 484.108304 255.333593 484.108304 L 241.430382 484.108304 C 108.09092 484.108304 0.00208229 375.73736 0.00208229 242.052634 C 0.00208229 108.372118 108.09092 0.00117416 241.430382 0.00117416 Z M 255.333593 0.00117416 " stroke="#ffffff" stroke-width="1.614579" stroke-opacity="1" stroke-miterlimit="4"/></g></g></g></g></svg>